<svg xmlns="http://www.w3.org/2000/svg" xmlns:xlink="http://www.w3.org/1999/xlink" width="31" height="23" viewBox="0 0 31 23">
  <defs>
    <clipPath id="clip-path">
      <rect id="Rectángulo_161357" data-name="Rectángulo 161357" width="31" height="23" transform="translate(222 15)" fill="#fff"/>
    </clipPath>
  </defs>
  <g id="Grupo_82467" data-name="Grupo 82467" transform="translate(-222 -15)" clip-path="url(#clip-path)">
    <g id="Grupo_82466" data-name="Grupo 82466">
      <path id="Trazado_108883" data-name="Trazado 108883" d="M252.989,32.932c-.005-.057-.011-.114-.02-.171l-.092-.911c-.062-.612-.125-1.224-.182-1.839l-1.221-12.674a2.553,2.553,0,0,0-.879-1.716A2.588,2.588,0,0,0,248.76,15c-.574.042-1.152.1-1.727.156l-.869.084q-3.006.295-6.008.583l-9.184.872-4.915.47-.462.044-1.08.1a2.63,2.63,0,0,0-.453.057.489.489,0,0,0-.078.014,2.407,2.407,0,0,0-.336.114,1.065,1.065,0,0,0-.136.05,2.636,2.636,0,0,0-1.125,1A2.605,2.605,0,0,0,222,19.995c.006.088.014.177.024.246l.014.143q.258,2.562.505,5.125l.983,10.17a2.568,2.568,0,0,0,.831,1.644A2.608,2.608,0,0,0,226.08,38h.078a1.646,1.646,0,0,0,.256-.014l5.707-.544q4.184-.4,8.366-.8l4.08-.39c2.008-.191,4.021-.383,5.975-.576a1.245,1.245,0,0,0,.26-.032,2.575,2.575,0,0,0,1.6-.893,2.537,2.537,0,0,0,.59-1.729c0-.011-.006-.071-.008-.083m-1.211.63a1.407,1.407,0,0,1-1.135.944l-.157.024q-3.015.294-6.029.579l-4.082.39q-4.181.406-8.364.8l-5.727.547a1.389,1.389,0,0,1-.139.006,1.453,1.453,0,0,1-.993-.358,1.433,1.433,0,0,1-.484-.933L223.687,25.4q-.249-2.568-.507-5.136l-.018-.167a1.526,1.526,0,0,1-.015-.167,1.453,1.453,0,0,1,.833-1.35c.02-.006.086-.029.106-.037a1.449,1.449,0,0,1,.143-.052l.042-.007a1.569,1.569,0,0,1,.314-.038c.374-.034.745-.07,1.121-.105l.459-.045q2.459-.233,4.916-.47l9.185-.872q3-.285,6.007-.579c.292-.027.583-.057.874-.085.566-.057,1.131-.114,1.683-.153a1.436,1.436,0,0,1,1.017.349,1.416,1.416,0,0,1,.484.954l1.221,12.674c.058.615.121,1.231.183,1.847l.094.924,0,.028c.007.047.012.093.019.149a1.344,1.344,0,0,1-.073.5" fill="#393939"/>
      <path id="Trazado_108884" data-name="Trazado 108884" d="M240.758,19.41q3.558-.349,7.115-.7h.057a.6.6,0,0,0,.235-.026.588.588,0,0,0,.206-.114.454.454,0,0,0,.1-.155.461.461,0,0,0,.027-.18c0-.243-.236-.322-.407-.38-.041-.014-.082-.027-.115-.041a.311.311,0,0,0-.229.021.146.146,0,0,0-.039.014l-6.172.6q-3.138.306-6.278.618l-7.369.725c-.756.073-1.514.146-2.269.228a.671.671,0,0,0-.336.162.689.689,0,0,1-.061.046.281.281,0,0,0-.1.1.282.282,0,0,0,0,.276.281.281,0,0,0,.1.1,1.176,1.176,0,0,0,.418.16.3.3,0,0,0,.051,0h.009c.275-.009.548-.038.821-.066Z" fill="#393939"/>
      <path id="Trazado_108885" data-name="Trazado 108885" d="M247.269,24.921l-1.233.119c.331.489.473.519,1.3.3Z" fill="#393939"/>
      <path id="Trazado_108886" data-name="Trazado 108886" d="M238.218,26.223l-.065-.417-1.549.155a1.73,1.73,0,0,0,1.614.263Z" fill="#393939"/>
      <path id="Trazado_108887" data-name="Trazado 108887" d="M227.764,26.823l.045.456,1.114-.109-.074-.46Z" fill="#393939"/>
      <path id="Trazado_108888" data-name="Trazado 108888" d="M227.336,26.862c-.367.034-.706.051-1.039.106a.32.32,0,0,0-.135.087.329.329,0,0,0-.075.141.3.3,0,0,0,.21.215c.354-.007.708-.053,1.084-.087Z" fill="#393939"/>
      <path id="Trazado_108889" data-name="Trazado 108889" d="M249.5,32.151a.443.443,0,0,0-.281,0q-3.5.342-7,.677l-6.489.622q-3.289.318-6.578.639l-.387.039c-.623.06-1.246.121-1.867.19a.54.54,0,0,0-.315.174.334.334,0,0,1-.043.039.3.3,0,0,0-.08.095.278.278,0,0,0-.031.12.283.283,0,0,0,.094.223l.159.142a.286.286,0,0,0,.192.073h.027l.459-.042c.3-.027.587-.054.871-.081l9.581-.935q5.409-.524,10.815-1.041l.08-.008c.26-.024.52-.049.776-.09a.578.578,0,0,0,.328-.219.283.283,0,0,0,.1-.228.282.282,0,0,0-.119-.218,1.946,1.946,0,0,0-.292-.171" fill="#393939"/>
      <path id="Trazado_108890" data-name="Trazado 108890" d="M247.761,25.335c.33-.03.64-.043.941-.1a.313.313,0,0,0,.2-.235.3.3,0,0,0-.082-.134.307.307,0,0,0-.139-.076c-.316,0-.631.05-.975.084Z" fill="#393939"/>
      <path id="Trazado_108891" data-name="Trazado 108891" d="M239.205,31.864c.01.11.082.279.159.3a.515.515,0,0,0,.351-.111c.131-.087.229-.228.361-.315a.409.409,0,0,1,.146-.064.415.415,0,0,1,.161,0,5.493,5.493,0,0,0,3.065.11,3.938,3.938,0,0,0,2.534-1.611,3.884,3.884,0,0,0,.644-2.918c-.005-.027-.01-.053-.016-.08a2.936,2.936,0,0,0-.745-1.644,2.971,2.971,0,0,0-1.57-.906,3.58,3.58,0,0,0-3.009.6c-.226.163-.445.335-.716.54-.045-.376-.08-.693-.115-1.01q-.229-2.174-.47-4.346c-.032-.293-.145-.334-.393-.2-.725.387-1.457.76-2.184,1.145-.085.045-.216.148-.205.2a.336.336,0,0,0,.076.138.346.346,0,0,0,.129.09c.658.132.861.513.918,1.176.2,2.367.489,4.726.735,7.088C239.125,30.649,239.147,31.257,239.205,31.864Zm1.636-5.538a2.262,2.262,0,0,1,3.448.933,4.229,4.229,0,0,1,.4,1.712c-.028.237-.038.478-.085.712a1.827,1.827,0,0,1-.773,1.17,1.851,1.851,0,0,1-1.379.286q-.066-.012-.129-.029a3.51,3.51,0,0,1-.628-.21,1.043,1.043,0,0,1-.706-1c-.07-1.065-.207-2.126-.33-3.189a.343.343,0,0,1,.024-.225A.35.35,0,0,1,240.841,26.326Z" fill="#393939"/>
      <path id="Trazado_108892" data-name="Trazado 108892" d="M228.645,33.38c2.021-.211,4.043-.411,6.061-.638a5.248,5.248,0,0,0,2.475-.877A3.091,3.091,0,0,0,238.4,28.4a2.814,2.814,0,0,0-.948-1.482,2.848,2.848,0,0,0-1.648-.637c-.447-.054-.9-.057-1.244-.076a11.511,11.511,0,0,0,1.534-.992,2.419,2.419,0,0,0-.86-4.163,4.518,4.518,0,0,0-1.875-.228c-1.382.114-2.762.262-4.143.4-.658.066-1.313.14-2,.213l.066.476c.273,0,.517-.009.753,0a.8.8,0,0,1,.559.193.79.79,0,0,1,.272.522c.025.127.039.256.053.385q.26,2.412.517,4.824c.141,1.33.287,2.66.42,3.991a.79.79,0,0,1-.126.6.8.8,0,0,1-.514.334H229.2c-.241.066-.489.1-.758.149l.067.477A1.151,1.151,0,0,0,228.645,33.38Zm7.325-3.615a2.619,2.619,0,0,1-3.13,2.471.743.743,0,0,1-.471-.185.731.731,0,0,1-.241-.442c-.1-.5-.156-1-.213-1.51-.119-1.04-.225-2.082-.349-3.233a16.02,16.02,0,0,1,2.23-.014A2.552,2.552,0,0,1,235.97,29.765Zm-2.618-8.1a1.658,1.658,0,0,1,.952.827,3.147,3.147,0,0,1,.333,1.919,1.872,1.872,0,0,1-1.181,1.519,5.684,5.684,0,0,1-1.95.361l-.494-4.628a5.251,5.251,0,0,1,2.34,0" fill="#393939"/>
    </g>
  </g>
</svg>
