<svg xmlns="http://www.w3.org/2000/svg" width="23.648" height="23.614" viewBox="0 0 23.648 23.614">
  <g id="Grupo_82474" data-name="Grupo 82474" transform="translate(-70.75 -14.696)">
    <path id="Trazado_108903" data-name="Trazado 108903" d="M85.036,20.9V24.91l1.343.865,6.284-4.333a.717.717,0,0,0-.155-.317.558.558,0,0,0-.348-.225H85.036Zm-.471,4.144V20.418h7.6a1.033,1.033,0,0,1,.707.4,1.172,1.172,0,0,1,.279.747v.128l-.1.071-6.448,4.446-.061.03a.524.524,0,0,1-.151.021.561.561,0,0,1-.15-.019l-.06-.027-1.5-.965-.11-.071v-.132Z" transform="translate(1)" fill="#212121" stroke="#393939" stroke-width="0.5"/>
    <path id="Trazado_108904" data-name="Trazado 108904" d="M84.933,25.865l1.368.961.006,0c.059.044.145,0,.163-.011l6.313-4.3.366-.249v8.507a1.515,1.515,0,0,1-.374,1.074,1.377,1.377,0,0,1-1.028.412H84.565v-6.44H84.8l.132.043Zm1.1,1.358-1-.7v5.261h6.71a.924.924,0,0,0,.689-.263,1.047,1.047,0,0,0,.242-.741V23.169l-5.954,4.056-.01.007A.638.638,0,0,1,86.036,27.223Z" transform="translate(1 1)" fill="#212121" stroke="#393939" stroke-width="0.5"/>
    <path id="Trazado_108905" data-name="Trazado 108905" d="M77.722,24.283a.96.96,0,0,0-.508.134,1.235,1.235,0,0,0-.4.424,2.366,2.366,0,0,0-.278.707,4.176,4.176,0,0,0-.1.941,4.24,4.24,0,0,0,.1.948,2.252,2.252,0,0,0,.277.695,1.234,1.234,0,0,0,.4.412.917.917,0,0,0,.483.129h0a.98.98,0,0,0,.5-.127,1.174,1.174,0,0,0,.393-.4,2.174,2.174,0,0,0,.271-.682,4.248,4.248,0,0,0,.094-.948,4.894,4.894,0,0,0-.092-.992,2.309,2.309,0,0,0-.264-.708,1.174,1.174,0,0,0-.383-.408.917.917,0,0,0-.487-.129h0ZM76.975,24a1.42,1.42,0,0,1,.747-.2h0a1.372,1.372,0,0,1,.728.2,1.634,1.634,0,0,1,.543.57,2.778,2.778,0,0,1,.323.857,5.258,5.258,0,0,1,.1,1.094,4.635,4.635,0,0,1-.107,1.057,2.669,2.669,0,0,1-.334.834,1.638,1.638,0,0,1-.555.553,1.431,1.431,0,0,1-.733.19h0a1.372,1.372,0,0,1-.723-.2,1.693,1.693,0,0,1-.553-.567,2.74,2.74,0,0,1-.34-.843,4.69,4.69,0,0,1-.109-1.059,4.624,4.624,0,0,1,.109-1.052,2.861,2.861,0,0,1,.339-.852h0A1.7,1.7,0,0,1,76.975,24Z" fill="#212121" stroke="#393939" stroke-width="0.5"/>
    <path id="Trazado_108906" data-name="Trazado 108906" d="M79.96,29.438a2.962,2.962,0,0,1-1.014.887,2.755,2.755,0,0,1-1.283.3h0a2.721,2.721,0,0,1-1.255-.288,2.922,2.922,0,0,1-1-.86,3.954,3.954,0,0,1-.638-1.294,5.73,5.73,0,0,1-.21-1.6,6.247,6.247,0,0,1,.212-1.684,4.17,4.17,0,0,1,.647-1.354,2.943,2.943,0,0,1,1.025-.9,2.821,2.821,0,0,1,1.312-.3h0a2.675,2.675,0,0,1,1.249.29,2.855,2.855,0,0,1,.982.863,3.976,3.976,0,0,1,.624,1.3,6.04,6.04,0,0,1,.2,1.628h0a6.148,6.148,0,0,1-.211,1.672,4.082,4.082,0,0,1-.646,1.341Zm-1.225.457a2.492,2.492,0,0,0,.852-.747,3.605,3.605,0,0,0,.568-1.183,5.67,5.67,0,0,0,.192-1.54h0a5.551,5.551,0,0,0-.186-1.5,3.506,3.506,0,0,0-.547-1.147h0a2.384,2.384,0,0,0-.818-.722,2.224,2.224,0,0,0-1.037-.239h0a2.375,2.375,0,0,0-1.1.25,2.474,2.474,0,0,0-.861.759,3.677,3.677,0,0,0-.569,1.2,5.762,5.762,0,0,0-.193,1.552,5.256,5.256,0,0,0,.19,1.467,3.469,3.469,0,0,0,.559,1.136,2.447,2.447,0,0,0,.834.722,2.267,2.267,0,0,0,1.046.239h0a2.3,2.3,0,0,0,1.071-.246ZM71.471,18.016V34.773l12.288,2.635V15.583ZM71,34.969V17.619l.191-.038L83.95,15.055,84.23,15V38l-.283-.061L71.188,35.2,71,35.164Z" fill="#212121" stroke="#393939" stroke-width="0.5"/>
  </g>
</svg>
