<svg xmlns="http://www.w3.org/2000/svg" xmlns:xlink="http://www.w3.org/1999/xlink" width="20" height="21" viewBox="0 0 20 21">
  <defs>
    <clipPath id="clip-path">
      <rect id="Rectángulo_161361" data-name="Rectángulo 161361" width="20" height="21" transform="translate(427 16)" fill="#fff"/>
    </clipPath>
  </defs>
  <g id="Grupo_82472" data-name="Grupo 82472" transform="translate(-427 -16)" clip-path="url(#clip-path)">
    <path id="Trazado_108908" data-name="Trazado 108908" d="M443.666,23.636a.481.481,0,0,1-.476-.434c-.371-3.971-2.628-6.247-6.19-6.247s-5.824,2.277-6.191,6.247a.479.479,0,0,1-.519.43.473.473,0,0,1-.428-.52C430.276,18.658,432.943,16,437,16s6.724,2.658,7.143,7.116a.478.478,0,0,1-.429.52h-.048Z" fill="#1d1d1b"/>
    <path id="Trazado_108909" data-name="Trazado 108909" d="M431.7,23.159h-1.362c-1.838,0-3.333,1.928-3.333,4.3s1.495,4.3,3.333,4.3H431.7a1.5,1.5,0,0,0,1.495-1.5V24.658A1.5,1.5,0,0,0,431.7,23.159Zm-3.743,4.3a3.267,3.267,0,0,1,1.9-3.274v6.548A3.267,3.267,0,0,1,427.952,27.455Zm4.286,2.8a.543.543,0,0,1-.543.544h-.885V24.114h.885a.543.543,0,0,1,.543.544Z" fill="#1d1d1b"/>
    <path id="Trazado_108910" data-name="Trazado 108910" d="M443.667,23.159H442.3a1.5,1.5,0,0,0-1.495,1.5v5.594a1.5,1.5,0,0,0,1.495,1.5h1.362c1.838,0,3.333-1.928,3.333-4.3S445.505,23.159,443.667,23.159Zm-1.9,7.092V24.658a.543.543,0,0,1,.543-.544h.886V30.8H442.3A.543.543,0,0,1,441.762,30.251Zm2.381.477V24.18a3.267,3.267,0,0,1,1.9,3.274A3.267,3.267,0,0,1,444.143,30.729Z" fill="#1d1d1b"/>
    <path id="Trazado_108911" data-name="Trazado 108911" d="M444.143,31.273a.477.477,0,1,0-.953,0,3.453,3.453,0,0,1-2.461,3.293,1.908,1.908,0,1,0,.023.964A4.379,4.379,0,0,0,444.143,31.273ZM438.9,36.045a.955.955,0,1,1,.952-.954A.957.957,0,0,1,438.9,36.045Z" fill="#1d1d1b"/>
  </g>
</svg>
