<svg xmlns="http://www.w3.org/2000/svg" xmlns:xlink="http://www.w3.org/1999/xlink" width="25.546" height="22.001" viewBox="0 0 25.546 22.001">
  <defs>
    <clipPath id="clip-path">
      <rect id="Rectángulo_161359" data-name="Rectángulo 161359" width="25.546" height="22.001" transform="translate(587 15)" fill="#fff"/>
    </clipPath>
  </defs>
  <g id="Grupo_82469" data-name="Grupo 82469" transform="translate(-587 -15)" clip-path="url(#clip-path)">
    <path id="Trazado_108900" data-name="Trazado 108900" d="M608.141,25.132c.816-.591,2.632-1.31,3.813.1a2.622,2.622,0,0,1-.29,3.62c-.73.666-6.928,6.241-9.334,7-1.712.532-4.161-.074-5.981-.523l-.055-.014a10.311,10.311,0,0,0-1.6-.333,16.123,16.123,0,0,0-3.663,1.89.772.772,0,0,1-.43.129.811.811,0,0,1-.77-.586.811.811,0,0,1,.34-.907c.752-.483,3.319-2.073,4.436-2.138a8.251,8.251,0,0,1,2.084.376c1.536.387,3.878.967,5.156.559,1.762-.559,6.885-4.984,8.711-6.638a1.069,1.069,0,0,0,.129-1.418c-.5-.6-1.611.161-1.622.172l-4.576,3.394a2.151,2.151,0,0,1-.021.376,2.341,2.341,0,0,1-2.3,2.03h-.021l-5.575-.29a.81.81,0,0,1-.313-.071.81.81,0,0,1-.427-.461.836.836,0,0,1-.047-.317.817.817,0,0,1,.081-.31.806.806,0,0,1,.474-.413.807.807,0,0,1,.318-.038l5.553.29a.739.739,0,0,0,.688-.7.865.865,0,0,0,.025-.354.866.866,0,0,0-.691-.731c-1.88-.1-6.767-.258-8.2.161a31.344,31.344,0,0,0-5.768,3.33.743.743,0,0,1-.462.15A.8.8,0,0,1,587.341,31l.034-.024c.433-.3,4.282-2.973,6.206-3.532,1.966-.58,8.12-.258,8.819-.215a.571.571,0,0,0,.064.011.494.494,0,0,1,.065.011,2.713,2.713,0,0,1,1.482.934Z" fill="#191919" fill-rule="evenodd"/>
    <path id="Trazado_108901" data-name="Trazado 108901" d="M604.5,18.951a.455.455,0,0,0-.092-.156.512.512,0,0,0-.147-.113.6.6,0,0,0-.182-.053.554.554,0,0,0-.188,0,.452.452,0,0,0-.147.109l-3.492,2.543-.918-1.021a.46.46,0,0,0-.15-.1.567.567,0,0,0-.364-.018.472.472,0,0,0-.16.088.48.48,0,0,0-.179.3.472.472,0,0,0,.023.179.451.451,0,0,0,.092.156l1.239,1.356a.464.464,0,0,0,.165.113.438.438,0,0,0,.2.043.523.523,0,0,0,.312-.109l3.832-2.831a.436.436,0,0,0,.119-.135.413.413,0,0,0,.055-.174A.442.442,0,0,0,604.5,18.951Z" fill="#191919" stroke="#191919" stroke-width="0.2"/>
    <path id="Trazado_108902" data-name="Trazado 108902" d="M601.5,25.35a4.85,4.85,0,1,0-4.85-4.85A4.85,4.85,0,0,0,601.5,25.35Z" fill="none" stroke="#191919" stroke-width="1.3"/>
  </g>
</svg>
