<svg xmlns="http://www.w3.org/2000/svg" width="25.439" height="25.547" viewBox="0 0 25.439 25.547">
  <g id="icons8-whatsapp" transform="translate(-3.868 -4)">
    <path id="Trazado_39753" data-name="Trazado 39753" d="M4.868,29.253l1.706-6.227a12.023,12.023,0,1,1,10.417,6.019h-.005a12.008,12.008,0,0,1-5.745-1.463Z" transform="translate(-0.354 -0.353)" fill="#fff"/>
    <path id="Trazado_39754" data-name="Trazado 39754" d="M4.685,29.4A.316.316,0,0,1,4.38,29l1.672-6.1a12.344,12.344,0,1,1,4.97,4.854l-6.256,1.64A.29.29,0,0,1,4.685,29.4Z" transform="translate(-0.177 -0.177)" fill="#fff"/>
    <path id="Trazado_39755" data-name="Trazado 39755" d="M16.638,4.634a12.035,12.035,0,0,1,0,24.07h-.005a12.021,12.021,0,0,1-5.751-1.465L4.5,28.913l1.708-6.234A12.036,12.036,0,0,1,16.638,4.634m0,24.07h0m0,0h0m0-24.7h0A12.672,12.672,0,0,0,5.529,22.763L3.89,28.746a.634.634,0,0,0,.773.78l6.14-1.61A12.67,12.67,0,1,0,16.638,4Z" transform="translate(0 0)" fill="#cfd8dc"/>
    <path id="Trazado_39756" data-name="Trazado 39756" d="M25.217,11.122A9.948,9.948,0,0,0,9.753,23.441l.237.376L8.985,27.487,12.75,26.5l.364.216A9.93,9.93,0,0,0,18.177,28.1h0a9.948,9.948,0,0,0,7.037-16.979Z" transform="translate(-1.542 -1.486)" fill="#40c351"/>
    <path id="Trazado_39757" data-name="Trazado 39757" d="M17.535,15.751c-.23-.511-.471-.521-.691-.53-.179-.008-.383-.007-.588-.007a1.127,1.127,0,0,0-.818.384,3.438,3.438,0,0,0-1.074,2.558,5.965,5.965,0,0,0,1.252,3.172,12.594,12.594,0,0,0,5.24,4.63c2.591,1.022,3.119.819,3.681.768a3.1,3.1,0,0,0,2.07-1.458,2.569,2.569,0,0,0,.179-1.458c-.077-.128-.281-.2-.588-.358s-1.815-.9-2.1-1-.486-.153-.691.154-.792,1-.971,1.2-.358.231-.665.077a8.4,8.4,0,0,1-2.467-1.522A9.242,9.242,0,0,1,17.6,20.241c-.179-.306-.019-.473.134-.626.138-.138.306-.358.46-.537a2.1,2.1,0,0,0,.306-.511.564.564,0,0,0-.026-.537C18.4,17.875,17.808,16.358,17.535,15.751Z" transform="translate(-3.967 -4.22)" fill="#fff" fill-rule="evenodd"/>
  </g>
</svg>
