<svg width="24" height="24" viewBox="0 0 24 24" fill="none" xmlns="http://www.w3.org/2000/svg">
<path d="M21.0298 19.997H2.96039C2.88424 19.9952 2.80937 19.978 2.74048 19.9455C2.67159 19.913 2.6102 19.8656 2.5604 19.808C2.45573 19.6832 2.39903 19.5255 2.40044 19.3627V5.70202C2.39672 5.57875 2.42809 5.4566 2.49087 5.35046C2.54928 5.24975 2.63684 5.17065 2.74204 5.12078C4.23252 4.43802 5.84355 4.05705 7.48198 4.00049C9.03883 4.05397 10.5715 4.40136 11.9995 5.02391C13.4271 4.4004 14.96 4.05297 16.517 4.00049C18.1538 4.05743 19.7631 4.4384 21.252 5.12078C21.3575 5.17026 21.4453 5.24946 21.5034 5.35046C21.5649 5.45731 21.5974 5.57873 21.5977 5.70202V16.3096L20.4698 15.1956V6.13795C19.2153 5.61015 17.8761 5.3124 16.5162 5.25828C15.1562 5.31226 13.8172 5.61002 12.5627 6.13795V7.61135C12.2472 7.81215 11.9491 8.04037 11.6715 8.29103C11.5868 8.39103 11.5115 8.48485 11.4315 8.58165V6.13795C10.177 5.61015 8.8378 5.3124 7.47788 5.25828C6.11794 5.31221 4.77887 5.60997 3.52445 6.13795V17.5533C4.78654 17.0615 6.12387 16.7909 7.47788 16.7534C8.83122 16.7902 10.1684 17.0567 11.4315 17.544V14.4737C11.5019 14.5641 11.5788 14.658 11.6715 14.7612C11.9333 15.0595 12.2329 15.3219 12.5627 15.5424V17.5424C13.8247 17.0502 15.1621 16.7796 16.5162 16.7424C17.4011 16.7682 18.2804 16.8923 19.1378 17.1127C19.6978 17.6423 20.2369 18.1705 20.5097 18.4393L20.5306 18.4596C20.7556 18.7137 21.0717 18.8687 21.4104 18.8908C21.474 18.8905 21.5376 18.884 21.6001 18.8721V19.3533C21.5999 19.5169 21.5411 19.6747 21.4344 19.7986C21.3852 19.8589 21.3236 19.908 21.2538 19.9424C21.1839 19.9767 21.1076 19.9948 21.0298 19.997ZM16.5123 18.0205C15.3037 18.0567 14.1098 18.2953 12.9803 18.7268H20.0257C18.9018 18.298 17.7145 18.0595 16.5123 18.0205ZM7.4771 18.0205C6.26883 18.0568 5.07535 18.2954 3.94612 18.7268H10.9915C9.86733 18.298 8.67962 18.0594 7.4771 18.0205Z" fill="#191919"/>
<path fill-rule="evenodd" clip-rule="evenodd" d="M13.1164 14.8471C13.822 15.2999 14.6478 15.5289 15.4858 15.5042C16.3238 15.4795 17.1347 15.2022 17.8123 14.7087L21.0355 17.943C21.0651 17.9726 21.1219 17.9726 21.1955 17.943C21.3613 17.8646 21.4952 17.7316 21.5747 17.5662C21.6043 17.495 21.6043 17.439 21.5747 17.4062L18.3819 14.2063C19.0471 13.4991 19.4205 12.5668 19.4275 11.5959C19.4265 10.819 19.1882 10.0609 18.7443 9.42318C18.2921 8.775 17.6592 8.27422 16.9244 7.98321C16.1805 7.687 15.3675 7.60983 14.5812 7.76082C13.7987 7.90827 13.076 8.28018 12.5012 8.83119C11.9389 9.37156 11.553 10.0692 11.3941 10.8328C11.2376 11.5916 11.318 12.3802 11.6245 13.0919C11.9361 13.8124 12.4556 14.4235 13.1164 14.8471ZM13.5284 8.93839C14.1702 8.52781 14.931 8.3441 15.6894 8.4166C16.4478 8.48911 17.16 8.81364 17.7123 9.33838C18.2523 9.85031 18.5909 10.5389 18.6665 11.2791C18.7421 12.0194 18.5497 12.7622 18.1243 13.3727C17.7548 13.9024 17.2376 14.3116 16.6372 14.5495C16.0294 14.7914 15.3652 14.8544 14.7228 14.7311C14.0845 14.6101 13.495 14.3064 13.026 13.8567C12.5656 13.4148 12.2496 12.844 12.1197 12.2191C11.9919 11.5989 12.0578 10.9543 12.3084 10.3728C12.5633 9.78386 12.9881 9.28442 13.5284 8.93839Z" fill="#191919" stroke="#191919" stroke-width="0.6"/>
</svg>
