<svg xmlns="http://www.w3.org/2000/svg" width="24" height="24" viewBox="0 0 18 14" fill="none">
<path fill-rule="evenodd" clip-rule="evenodd" d="M12.9532 0.295228C13.3091 0.144263 13.6547 0.391477 13.6547 0.736817V11.8643C13.6547 12.2094 13.3094 12.4566 12.9532 12.3056L6.02268 9.57722H5.32561L5.64271 11.6166L5.64313 11.619C5.83298 12.7455 4.94765 13.75 3.80444 13.75C2.85691 13.75 2.09464 13.0647 1.9668 12.1159L1.46022 8.9662L1.38898 8.91738C0.529063 8.32855 0 7.34664 0 6.30048C0 4.46662 1.52345 3.02378 3.31228 3.02378H6.0226L12.9483 0.297311L12.9532 0.295228ZM16.6323 1.04771C16.8171 0.864911 17.1167 0.864911 17.3015 1.04771C17.4863 1.23052 17.4863 1.5269 17.3015 1.70971L15.9496 3.04714C15.7648 3.22994 15.4651 3.22994 15.2803 3.04714C15.0956 2.86433 15.0956 2.56795 15.2803 2.38514L16.6323 1.04771ZM12.6543 11.1174V1.48357L6.62459 3.86961V8.7313L12.6543 11.1174ZM3.31228 4.01348C2.07985 4.01348 1.00045 5.00302 1.00045 6.30048C1.00045 7.59795 2.07985 8.58753 3.31228 8.58753H5.62412V4.01348H3.31228ZM15.1417 6.33681C15.1417 6.07829 15.3535 5.86872 15.6148 5.86872H17.5268C17.7881 5.86872 18 6.07829 18 6.33681C18 6.59534 17.7881 6.80492 17.5268 6.80492H15.6148C15.3535 6.80492 15.1417 6.59534 15.1417 6.33681ZM15.2803 9.07232C15.4651 8.88947 15.7648 8.88947 15.9496 9.07232L17.3015 10.4097C17.4863 10.5926 17.4863 10.8889 17.3015 11.0717C17.1167 11.2545 16.8171 11.2545 16.6323 11.0717L15.2803 9.73428C15.0956 9.5515 15.0956 9.2551 15.2803 9.07232ZM4.33269 9.57722H2.51298L2.90089 12.0344L2.90258 12.0427C2.99327 12.4911 3.36362 12.7603 3.80444 12.7603C4.35895 12.7603 4.72532 12.2945 4.63765 11.7646L4.33269 9.57722Z" fill="#191919"/>
<path fill-rule="evenodd" clip-rule="evenodd" d="M12.9532 0.295228C13.3091 0.144263 13.6547 0.391477 13.6547 0.736817V11.8643C13.6547 12.2094 13.3094 12.4566 12.9532 12.3056L6.02268 9.57722H5.32561L5.64271 11.6166L5.64313 11.619C5.83298 12.7455 4.94765 13.75 3.80444 13.75C2.85691 13.75 2.09464 13.0647 1.9668 12.1159L1.46022 8.9662L1.38898 8.91738C0.529063 8.32855 0 7.34664 0 6.30048C0 4.46662 1.52345 3.02378 3.31228 3.02378H6.0226L12.9483 0.297311L12.9532 0.295228ZM16.6323 1.04771C16.8171 0.864911 17.1167 0.864911 17.3015 1.04771C17.4863 1.23052 17.4863 1.5269 17.3015 1.70971L15.9496 3.04714C15.7648 3.22994 15.4651 3.22994 15.2803 3.04714C15.0956 2.86433 15.0956 2.56795 15.2803 2.38514L16.6323 1.04771ZM12.6543 11.1174V1.48357L6.62459 3.86961V8.7313L12.6543 11.1174ZM3.31228 4.01348C2.07985 4.01348 1.00045 5.00302 1.00045 6.30048C1.00045 7.59795 2.07985 8.58753 3.31228 8.58753H5.62412V4.01348H3.31228ZM15.1417 6.33681C15.1417 6.07829 15.3535 5.86872 15.6148 5.86872H17.5268C17.7881 5.86872 18 6.07829 18 6.33681C18 6.59534 17.7881 6.80492 17.5268 6.80492H15.6148C15.3535 6.80492 15.1417 6.59534 15.1417 6.33681ZM15.2803 9.07232C15.4651 8.88947 15.7648 8.88947 15.9496 9.07232L17.3015 10.4097C17.4863 10.5926 17.4863 10.8889 17.3015 11.0717C17.1167 11.2545 16.8171 11.2545 16.6323 11.0717L15.2803 9.73428C15.0956 9.5515 15.0956 9.2551 15.2803 9.07232ZM4.33269 9.57722H2.51298L2.90089 12.0344L2.90258 12.0427C2.99327 12.4911 3.36362 12.7603 3.80444 12.7603C4.35895 12.7603 4.72532 12.2945 4.63765 11.7646L4.33269 9.57722Z" fill="black" fill-opacity="0.2"/>
<path fill-rule="evenodd" clip-rule="evenodd" d="M12.9532 0.295228C13.3091 0.144263 13.6547 0.391477 13.6547 0.736817V11.8643C13.6547 12.2094 13.3094 12.4566 12.9532 12.3056L6.02268 9.57722H5.32561L5.64271 11.6166L5.64313 11.619C5.83298 12.7455 4.94765 13.75 3.80444 13.75C2.85691 13.75 2.09464 13.0647 1.9668 12.1159L1.46022 8.9662L1.38898 8.91738C0.529063 8.32855 0 7.34664 0 6.30048C0 4.46662 1.52345 3.02378 3.31228 3.02378H6.0226L12.9483 0.297311L12.9532 0.295228ZM16.6323 1.04771C16.8171 0.864911 17.1167 0.864911 17.3015 1.04771C17.4863 1.23052 17.4863 1.5269 17.3015 1.70971L15.9496 3.04714C15.7648 3.22994 15.4651 3.22994 15.2803 3.04714C15.0956 2.86433 15.0956 2.56795 15.2803 2.38514L16.6323 1.04771ZM12.6543 11.1174V1.48357L6.62459 3.86961V8.7313L12.6543 11.1174ZM3.31228 4.01348C2.07985 4.01348 1.00045 5.00302 1.00045 6.30048C1.00045 7.59795 2.07985 8.58753 3.31228 8.58753H5.62412V4.01348H3.31228ZM15.1417 6.33681C15.1417 6.07829 15.3535 5.86872 15.6148 5.86872H17.5268C17.7881 5.86872 18 6.07829 18 6.33681C18 6.59534 17.7881 6.80492 17.5268 6.80492H15.6148C15.3535 6.80492 15.1417 6.59534 15.1417 6.33681ZM15.2803 9.07232C15.4651 8.88947 15.7648 8.88947 15.9496 9.07232L17.3015 10.4097C17.4863 10.5926 17.4863 10.8889 17.3015 11.0717C17.1167 11.2545 16.8171 11.2545 16.6323 11.0717L15.2803 9.73428C15.0956 9.5515 15.0956 9.2551 15.2803 9.07232ZM4.33269 9.57722H2.51298L2.90089 12.0344L2.90258 12.0427C2.99327 12.4911 3.36362 12.7603 3.80444 12.7603C4.35895 12.7603 4.72532 12.2945 4.63765 11.7646L4.33269 9.57722Z" fill="black" fill-opacity="0.2"/>
<path fill-rule="evenodd" clip-rule="evenodd" d="M12.9532 0.295228C13.3091 0.144263 13.6547 0.391477 13.6547 0.736817V11.8643C13.6547 12.2094 13.3094 12.4566 12.9532 12.3056L6.02268 9.57722H5.32561L5.64271 11.6166L5.64313 11.619C5.83298 12.7455 4.94765 13.75 3.80444 13.75C2.85691 13.75 2.09464 13.0647 1.9668 12.1159L1.46022 8.9662L1.38898 8.91738C0.529063 8.32855 0 7.34664 0 6.30048C0 4.46662 1.52345 3.02378 3.31228 3.02378H6.0226L12.9483 0.297311L12.9532 0.295228ZM16.6323 1.04771C16.8171 0.864911 17.1167 0.864911 17.3015 1.04771C17.4863 1.23052 17.4863 1.5269 17.3015 1.70971L15.9496 3.04714C15.7648 3.22994 15.4651 3.22994 15.2803 3.04714C15.0956 2.86433 15.0956 2.56795 15.2803 2.38514L16.6323 1.04771ZM12.6543 11.1174V1.48357L6.62459 3.86961V8.7313L12.6543 11.1174ZM3.31228 4.01348C2.07985 4.01348 1.00045 5.00302 1.00045 6.30048C1.00045 7.59795 2.07985 8.58753 3.31228 8.58753H5.62412V4.01348H3.31228ZM15.1417 6.33681C15.1417 6.07829 15.3535 5.86872 15.6148 5.86872H17.5268C17.7881 5.86872 18 6.07829 18 6.33681C18 6.59534 17.7881 6.80492 17.5268 6.80492H15.6148C15.3535 6.80492 15.1417 6.59534 15.1417 6.33681ZM15.2803 9.07232C15.4651 8.88947 15.7648 8.88947 15.9496 9.07232L17.3015 10.4097C17.4863 10.5926 17.4863 10.8889 17.3015 11.0717C17.1167 11.2545 16.8171 11.2545 16.6323 11.0717L15.2803 9.73428C15.0956 9.5515 15.0956 9.2551 15.2803 9.07232ZM4.33269 9.57722H2.51298L2.90089 12.0344L2.90258 12.0427C2.99327 12.4911 3.36362 12.7603 3.80444 12.7603C4.35895 12.7603 4.72532 12.2945 4.63765 11.7646L4.33269 9.57722Z" fill="black" fill-opacity="0.2"/>
<path fill-rule="evenodd" clip-rule="evenodd" d="M12.9532 0.295228C13.3091 0.144263 13.6547 0.391477 13.6547 0.736817V11.8643C13.6547 12.2094 13.3094 12.4566 12.9532 12.3056L6.02268 9.57722H5.32561L5.64271 11.6166L5.64313 11.619C5.83298 12.7455 4.94765 13.75 3.80444 13.75C2.85691 13.75 2.09464 13.0647 1.9668 12.1159L1.46022 8.9662L1.38898 8.91738C0.529063 8.32855 0 7.34664 0 6.30048C0 4.46662 1.52345 3.02378 3.31228 3.02378H6.0226L12.9483 0.297311L12.9532 0.295228ZM16.6323 1.04771C16.8171 0.864911 17.1167 0.864911 17.3015 1.04771C17.4863 1.23052 17.4863 1.5269 17.3015 1.70971L15.9496 3.04714C15.7648 3.22994 15.4651 3.22994 15.2803 3.04714C15.0956 2.86433 15.0956 2.56795 15.2803 2.38514L16.6323 1.04771ZM12.6543 11.1174V1.48357L6.62459 3.86961V8.7313L12.6543 11.1174ZM3.31228 4.01348C2.07985 4.01348 1.00045 5.00302 1.00045 6.30048C1.00045 7.59795 2.07985 8.58753 3.31228 8.58753H5.62412V4.01348H3.31228ZM15.1417 6.33681C15.1417 6.07829 15.3535 5.86872 15.6148 5.86872H17.5268C17.7881 5.86872 18 6.07829 18 6.33681C18 6.59534 17.7881 6.80492 17.5268 6.80492H15.6148C15.3535 6.80492 15.1417 6.59534 15.1417 6.33681ZM15.2803 9.07232C15.4651 8.88947 15.7648 8.88947 15.9496 9.07232L17.3015 10.4097C17.4863 10.5926 17.4863 10.8889 17.3015 11.0717C17.1167 11.2545 16.8171 11.2545 16.6323 11.0717L15.2803 9.73428C15.0956 9.5515 15.0956 9.2551 15.2803 9.07232ZM4.33269 9.57722H2.51298L2.90089 12.0344L2.90258 12.0427C2.99327 12.4911 3.36362 12.7603 3.80444 12.7603C4.35895 12.7603 4.72532 12.2945 4.63765 11.7646L4.33269 9.57722Z" fill="black" fill-opacity="0.2"/>
</svg>