<svg width="117" height="26" viewBox="0 0 117 26" fill="none" xmlns="http://www.w3.org/2000/svg">
<path d="M111.415 3.49133C111.404 3.48338 111.392 3.47775 111.378 3.47479C111.365 3.47183 111.351 3.47159 111.338 3.4741C111.324 3.47661 111.312 3.48181 111.3 3.48938C111.289 3.49696 111.28 3.50674 111.272 3.51813C111.26 3.53494 111.254 3.55507 111.254 3.5757C111.254 3.59634 111.26 3.61646 111.272 3.63328C112.472 5.04973 113.249 6.77139 113.515 8.60341C113.781 10.4354 113.524 12.3047 112.775 13.9996C112.026 15.6945 110.813 17.1474 109.275 18.1939C107.737 19.2403 105.935 19.8386 104.072 19.921C105.148 19.2661 106.047 18.3629 106.695 17.2883C107.343 16.2137 107.72 14.9996 107.793 13.7494C107.866 12.4993 107.634 11.25 107.115 10.1082C106.597 8.96642 105.809 7.96585 104.817 7.19177C103.895 6.47496 103.269 5.44771 103.057 4.30399C102.846 3.16027 103.063 1.97927 103.669 0.984009C103.677 0.97298 103.682 0.960596 103.684 0.947585C103.687 0.934574 103.686 0.9212 103.684 0.90825C103.681 0.8953 103.675 0.883036 103.668 0.872181C103.66 0.861326 103.65 0.852099 103.639 0.845044C103.623 0.835184 103.605 0.829956 103.586 0.829956C103.567 0.829956 103.549 0.835184 103.533 0.845044C102.393 1.45883 101.425 2.34426 100.715 3.42167C100.006 4.49909 99.5773 5.73469 99.4682 7.01733C99.3591 8.29997 99.573 9.58941 100.091 10.7697C100.608 11.9499 101.413 12.9839 102.433 13.7787C103.346 14.4895 103.969 15.5046 104.186 16.636C104.403 17.7674 104.2 18.9386 103.614 19.9329C101.712 19.9316 99.8496 19.3912 98.2462 18.3752C96.6428 17.3593 95.365 15.91 94.563 14.1978C93.7611 12.4857 93.4683 10.5818 93.7192 8.71011C93.97 6.83843 94.7541 5.07677 95.9792 3.63228C95.9981 3.61346 96.0088 3.58793 96.0088 3.56131C96.0088 3.53469 95.9981 3.50916 95.9792 3.49034C95.9698 3.48102 95.9586 3.47363 95.9464 3.46858C95.9341 3.46354 95.9209 3.46094 95.9077 3.46094C95.8808 3.46094 95.8551 3.47152 95.8362 3.49034C93.7603 5.09978 92.2423 7.31224 91.494 9.81908C90.7456 12.3259 90.8042 15.0021 91.6616 17.4743C92.5191 19.9465 94.1325 22.0914 96.2769 23.6097C98.4212 25.1281 100.99 25.9442 103.624 25.9442C106.258 25.9442 108.826 25.1281 110.97 23.6097C113.115 22.0914 114.728 19.9465 115.586 17.4743C116.443 15.0021 116.502 12.3259 115.753 9.81908C115.005 7.31224 113.487 5.09978 111.411 3.49034" fill="#E50A17"/>
<path d="M81.1732 3.39807H80.4922V25.3704H81.1732V3.39807Z" fill="#191919"/>
<path d="M4.1 14.146L2.922 8.60623H2.722L2.984 13.7231V25.6165H0V2.80444H4.17L6.828 13.5911L7.321 16.9481H7.65L8.143 13.5911L10.8 2.80444H14.97V25.6165H11.984V13.7231L12.246 8.60623H12.046L10.863 14.146L8.833 22.3578H6.139L4.1 14.146Z" fill="#191919"/>
<path d="M22.7313 2.80542H19.4473V25.6175H22.7313V2.80542Z" fill="#191919"/>
<path d="M42.1711 22.3578C42.1688 23.2213 41.8221 24.0488 41.2069 24.6595C40.5918 25.2701 39.7581 25.6142 38.8881 25.6165H35.2771C34.4072 25.6142 33.5735 25.2701 32.9583 24.6595C32.3432 24.0488 31.9965 23.2213 31.9941 22.3578V2.80444H35.2771V21.8684C35.286 22.0815 35.3752 22.2835 35.5271 22.4342C35.679 22.585 35.8825 22.6736 36.0971 22.6824H38.0681C38.2828 22.6736 38.4862 22.585 38.6382 22.4342C38.7901 22.2835 38.8793 22.0815 38.8881 21.8684V2.80444H42.1711V22.3578Z" fill="#191919"/>
<path d="M56.6907 12.0932C56.6881 12.9569 56.3412 13.7844 55.7259 14.395C55.1106 15.0056 54.2768 15.3496 53.4067 15.352H49.7967V25.6165H46.5117V2.80542H53.4057C54.2757 2.80804 55.1093 3.15217 55.7246 3.76271C56.3399 4.37324 56.6868 5.20059 56.6897 6.06415L56.6907 12.0932ZM53.4067 11.6039V6.5535C53.3979 6.34035 53.3087 6.13827 53.1568 5.98733C53.0049 5.83639 52.8014 5.7476 52.5867 5.73857H49.7967V12.4178H52.5867C52.8014 12.409 53.0048 12.3205 53.1567 12.1697C53.3086 12.0189 53.3979 11.8169 53.4067 11.6039Z" fill="#191919"/>
<path d="M69.7972 22.3578C69.7945 23.2213 69.4478 24.0486 68.8327 24.6592C68.2176 25.2697 67.3841 25.6139 66.5142 25.6165H62.9012C62.0313 25.6139 61.1978 25.2697 60.5826 24.6592C59.9675 24.0486 59.6208 23.2213 59.6182 22.3578V6.06317C59.6211 5.19979 59.9679 4.37259 60.5829 3.76208C61.198 3.15158 62.0314 2.80732 62.9012 2.80444H66.5142C67.384 2.80732 68.2173 3.15158 68.8324 3.76208C69.4474 4.37259 69.7943 5.19979 69.7972 6.06317V9.32289H66.5142V6.55252C66.5046 6.33953 66.415 6.13782 66.2631 5.98716C66.1111 5.83649 65.9078 5.74781 65.6932 5.73859H63.7212C63.5067 5.74783 63.3035 5.83654 63.1517 5.98723C62.9999 6.13792 62.9105 6.33962 62.9012 6.55252V21.8684C62.9102 22.0814 62.9996 22.2833 63.1514 22.434C63.3033 22.5847 63.5066 22.6734 63.7212 22.6824H65.6922C65.9068 22.6734 66.1103 22.5848 66.2623 22.4341C66.4143 22.2833 66.5038 22.0815 66.5132 21.8684V19.0951H69.7962L69.7972 22.3578Z" fill="#191919"/>
</svg>
