<svg xmlns="http://www.w3.org/2000/svg" xmlns:xlink="http://www.w3.org/1999/xlink" width="12" height="704" viewBox="0 0 12 704">
  <defs>
    <clipPath id="clip-path">
      <rect id="Rectangle_160999" data-name="Rectangle 160999" width="12" height="704" fill="#fff" stroke="#707070" stroke-width="1"/>
    </clipPath>
  </defs>
  <g id="Mask_Group_1" data-name="Mask Group 1" clip-path="url(#clip-path)">
    <g id="Group_82136" data-name="Group 82136">
      <path id="Path_107212" data-name="Path 107212" d="M.25.25v6l6,6h6v-6l-6-6Z" transform="translate(-0.25 -0.25)" fill="none" stroke="#e50a17" stroke-width="0.5"/>
      <path id="Path_107213" data-name="Path 107213" d="M.25,24.25v6l6,6h6v-6l-6-6Z" transform="translate(-0.25 -0.25)" fill="none" stroke="#e50a17" stroke-width="0.5"/>
      <path id="Path_107214" data-name="Path 107214" d="M12.25,12.25v6l6,6h6v-6l-6-6Z" transform="translate(-0.25 -0.25)" fill="none" stroke="#e50a17" stroke-width="0.5"/>
      <path id="Path_107215" data-name="Path 107215" d="M12.25,36.25v6l6,6h6v-6l-6-6Z" transform="translate(-0.25 -0.25)" fill="none" stroke="#e50a17" stroke-width="0.5"/>
      <path id="Path_107216" data-name="Path 107216" d="M24.25.25v6l-6,6h-6v-6l6-6Z" transform="translate(-0.25 -0.25)" fill="none" stroke="#e50a17" stroke-width="0.5"/>
      <path id="Path_107217" data-name="Path 107217" d="M24.25,24.25v6l-6,6h-6v-6l6-6Z" transform="translate(-0.25 -0.25)" fill="none" stroke="#e50a17" stroke-width="0.5"/>
      <path id="Path_107218" data-name="Path 107218" d="M12.25,12.25v6l-6,6h-6v-6l6-6Z" transform="translate(-0.25 -0.25)" fill="none" stroke="#e50a17" stroke-width="0.5"/>
      <path id="Path_107219" data-name="Path 107219" d="M12.25,36.25v6l-6,6h-6v-6l6-6Z" transform="translate(-0.25 -0.25)" fill="none" stroke="#e50a17" stroke-width="0.5"/>
      <path id="Path_107220" data-name="Path 107220" d="M.25,48.25v6l6,6h6v-6l-6-6Z" transform="translate(-0.25 -0.25)" fill="none" stroke="#e50a17" stroke-width="0.5"/>
      <path id="Path_107221" data-name="Path 107221" d="M.25,72.25v6l6,6h6v-6l-6-6Z" transform="translate(-0.25 -0.25)" fill="none" stroke="#e50a17" stroke-width="0.5"/>
      <path id="Path_107222" data-name="Path 107222" d="M12.25,60.25v6l6,6h6v-6l-6-6Z" transform="translate(-0.25 -0.25)" fill="none" stroke="#e50a17" stroke-width="0.5"/>
      <path id="Path_107223" data-name="Path 107223" d="M12.25,84.25v6l6,6h6v-6l-6-6Z" transform="translate(-0.25 -0.25)" fill="none" stroke="#e50a17" stroke-width="0.5"/>
      <path id="Path_107224" data-name="Path 107224" d="M24.25,48.25v6l-6,6h-6v-6l6-6Z" transform="translate(-0.25 -0.25)" fill="none" stroke="#e50a17" stroke-width="0.5"/>
      <path id="Path_107225" data-name="Path 107225" d="M24.25,72.25v6l-6,6h-6v-6l6-6Z" transform="translate(-0.25 -0.25)" fill="none" stroke="#e50a17" stroke-width="0.5"/>
      <path id="Path_107226" data-name="Path 107226" d="M12.25,60.25v6l-6,6h-6v-6l6-6Z" transform="translate(-0.25 -0.25)" fill="none" stroke="#e50a17" stroke-width="0.5"/>
      <path id="Path_107227" data-name="Path 107227" d="M12.25,84.25v6l-6,6h-6v-6l6-6Z" transform="translate(-0.25 -0.25)" fill="none" stroke="#e50a17" stroke-width="0.5"/>
      <path id="Path_107228" data-name="Path 107228" d="M.25,96.25v6l6,6h6v-6l-6-6Z" transform="translate(-0.25 -0.25)" fill="none" stroke="#e50a17" stroke-width="0.5"/>
      <path id="Path_107229" data-name="Path 107229" d="M.25,120.25v6l6,6h6v-6l-6-6Z" transform="translate(-0.25 -0.25)" fill="none" stroke="#e50a17" stroke-width="0.5"/>
      <path id="Path_107230" data-name="Path 107230" d="M12.25,108.25v6l6,6h6v-6l-6-6Z" transform="translate(-0.25 -0.25)" fill="none" stroke="#e50a17" stroke-width="0.5"/>
      <path id="Path_107231" data-name="Path 107231" d="M12.25,132.25v6l6,6h6v-6l-6-6Z" transform="translate(-0.25 -0.25)" fill="none" stroke="#e50a17" stroke-width="0.5"/>
      <path id="Path_107232" data-name="Path 107232" d="M24.25,96.25v6l-6,6h-6v-6l6-6Z" transform="translate(-0.25 -0.25)" fill="none" stroke="#e50a17" stroke-width="0.5"/>
      <path id="Path_107233" data-name="Path 107233" d="M24.25,120.25v6l-6,6h-6v-6l6-6Z" transform="translate(-0.25 -0.25)" fill="none" stroke="#e50a17" stroke-width="0.5"/>
      <path id="Path_107234" data-name="Path 107234" d="M12.25,108.25v6l-6,6h-6v-6l6-6Z" transform="translate(-0.25 -0.25)" fill="none" stroke="#e50a17" stroke-width="0.5"/>
      <path id="Path_107235" data-name="Path 107235" d="M12.25,132.25v6l-6,6h-6v-6l6-6Z" transform="translate(-0.25 -0.25)" fill="none" stroke="#e50a17" stroke-width="0.5"/>
      <path id="Path_107236" data-name="Path 107236" d="M.25,144.25v6l6,6h6v-6l-6-6Z" transform="translate(-0.25 -0.25)" fill="none" stroke="#e50a17" stroke-width="0.5"/>
      <path id="Path_107237" data-name="Path 107237" d="M.25,168.25v6l6,6h6v-6l-6-6Z" transform="translate(-0.25 -0.25)" fill="none" stroke="#e50a17" stroke-width="0.5"/>
      <path id="Path_107238" data-name="Path 107238" d="M12.25,156.25v6l6,6h6v-6l-6-6Z" transform="translate(-0.25 -0.25)" fill="none" stroke="#e50a17" stroke-width="0.5"/>
      <path id="Path_107239" data-name="Path 107239" d="M12.25,180.25v6l6,6h6v-6l-6-6Z" transform="translate(-0.25 -0.25)" fill="none" stroke="#e50a17" stroke-width="0.5"/>
      <path id="Path_107240" data-name="Path 107240" d="M24.25,144.25v6l-6,6h-6v-6l6-6Z" transform="translate(-0.25 -0.25)" fill="none" stroke="#e50a17" stroke-width="0.5"/>
      <path id="Path_107241" data-name="Path 107241" d="M24.25,168.25v6l-6,6h-6v-6l6-6Z" transform="translate(-0.25 -0.25)" fill="none" stroke="#e50a17" stroke-width="0.5"/>
      <path id="Path_107242" data-name="Path 107242" d="M12.25,156.25v6l-6,6h-6v-6l6-6Z" transform="translate(-0.25 -0.25)" fill="none" stroke="#e50a17" stroke-width="0.5"/>
      <path id="Path_107243" data-name="Path 107243" d="M12.25,180.25v6l-6,6h-6v-6l6-6Z" transform="translate(-0.25 -0.25)" fill="none" stroke="#e50a17" stroke-width="0.5"/>
      <path id="Path_107244" data-name="Path 107244" d="M.25,192.25v6l6,6h6v-6l-6-6Z" transform="translate(-0.25 -0.25)" fill="none" stroke="#e50a17" stroke-width="0.5"/>
      <path id="Path_107245" data-name="Path 107245" d="M.25,216.25v6l6,6h6v-6l-6-6Z" transform="translate(-0.25 -0.25)" fill="none" stroke="#e50a17" stroke-width="0.5"/>
      <path id="Path_107246" data-name="Path 107246" d="M12.25,204.25v6l6,6h6v-6l-6-6Z" transform="translate(-0.25 -0.25)" fill="none" stroke="#e50a17" stroke-width="0.5"/>
      <path id="Path_107247" data-name="Path 107247" d="M12.25,228.25v6l6,6h6v-6l-6-6Z" transform="translate(-0.25 -0.25)" fill="none" stroke="#e50a17" stroke-width="0.5"/>
      <path id="Path_107248" data-name="Path 107248" d="M24.25,192.25v6l-6,6h-6v-6l6-6Z" transform="translate(-0.25 -0.25)" fill="none" stroke="#e50a17" stroke-width="0.5"/>
      <path id="Path_107249" data-name="Path 107249" d="M24.25,216.25v6l-6,6h-6v-6l6-6Z" transform="translate(-0.25 -0.25)" fill="none" stroke="#e50a17" stroke-width="0.5"/>
      <path id="Path_107250" data-name="Path 107250" d="M12.25,204.25v6l-6,6h-6v-6l6-6Z" transform="translate(-0.25 -0.25)" fill="none" stroke="#e50a17" stroke-width="0.5"/>
      <path id="Path_107251" data-name="Path 107251" d="M12.25,228.25v6l-6,6h-6v-6l6-6Z" transform="translate(-0.25 -0.25)" fill="none" stroke="#e50a17" stroke-width="0.5"/>
      <path id="Path_107252" data-name="Path 107252" d="M.25,240.25v6l6,6h6v-6l-6-6Z" transform="translate(-0.25 -0.25)" fill="none" stroke="#e50a17" stroke-width="0.5"/>
      <path id="Path_107253" data-name="Path 107253" d="M.25,264.25v6l6,6h6v-6l-6-6Z" transform="translate(-0.25 -0.25)" fill="none" stroke="#e50a17" stroke-width="0.5"/>
      <path id="Path_107254" data-name="Path 107254" d="M12.25,252.25v6l6,6h6v-6l-6-6Z" transform="translate(-0.25 -0.25)" fill="none" stroke="#e50a17" stroke-width="0.5"/>
      <path id="Path_107255" data-name="Path 107255" d="M12.25,276.25v6l6,6h6v-6l-6-6Z" transform="translate(-0.25 -0.25)" fill="none" stroke="#e50a17" stroke-width="0.5"/>
      <path id="Path_107256" data-name="Path 107256" d="M24.25,240.25v6l-6,6h-6v-6l6-6Z" transform="translate(-0.25 -0.25)" fill="none" stroke="#e50a17" stroke-width="0.5"/>
      <path id="Path_107257" data-name="Path 107257" d="M24.25,264.25v6l-6,6h-6v-6l6-6Z" transform="translate(-0.25 -0.25)" fill="none" stroke="#e50a17" stroke-width="0.5"/>
      <path id="Path_107258" data-name="Path 107258" d="M12.25,252.25v6l-6,6h-6v-6l6-6Z" transform="translate(-0.25 -0.25)" fill="none" stroke="#e50a17" stroke-width="0.5"/>
      <path id="Path_107259" data-name="Path 107259" d="M12.25,276.25v6l-6,6h-6v-6l6-6Z" transform="translate(-0.25 -0.25)" fill="none" stroke="#e50a17" stroke-width="0.5"/>
      <path id="Path_107260" data-name="Path 107260" d="M.25,288.25v6l6,6h6v-6l-6-6Z" transform="translate(-0.25 -0.25)" fill="none" stroke="#e50a17" stroke-width="0.5"/>
      <path id="Path_107261" data-name="Path 107261" d="M.25,312.25v6l6,6h6v-6l-6-6Z" transform="translate(-0.25 -0.25)" fill="none" stroke="#e50a17" stroke-width="0.5"/>
      <path id="Path_107262" data-name="Path 107262" d="M12.25,300.25v6l6,6h6v-6l-6-6Z" transform="translate(-0.25 -0.25)" fill="none" stroke="#e50a17" stroke-width="0.5"/>
      <path id="Path_107263" data-name="Path 107263" d="M12.25,324.25v6l6,6h6v-6l-6-6Z" transform="translate(-0.25 -0.25)" fill="none" stroke="#e50a17" stroke-width="0.5"/>
      <path id="Path_107264" data-name="Path 107264" d="M24.25,288.25v6l-6,6h-6v-6l6-6Z" transform="translate(-0.25 -0.25)" fill="none" stroke="#e50a17" stroke-width="0.5"/>
      <path id="Path_107265" data-name="Path 107265" d="M24.25,312.25v6l-6,6h-6v-6l6-6Z" transform="translate(-0.25 -0.25)" fill="none" stroke="#e50a17" stroke-width="0.5"/>
      <path id="Path_107266" data-name="Path 107266" d="M12.25,300.25v6l-6,6h-6v-6l6-6Z" transform="translate(-0.25 -0.25)" fill="none" stroke="#e50a17" stroke-width="0.5"/>
      <path id="Path_107267" data-name="Path 107267" d="M12.25,324.25v6l-6,6h-6v-6l6-6Z" transform="translate(-0.25 -0.25)" fill="none" stroke="#e50a17" stroke-width="0.5"/>
      <path id="Path_107268" data-name="Path 107268" d="M.25,336.25v6l6,6h6v-6l-6-6Z" transform="translate(-0.25 -0.25)" fill="none" stroke="#e50a17" stroke-width="0.5"/>
      <path id="Path_107269" data-name="Path 107269" d="M.25,360.25v6l6,6h6v-6l-6-6Z" transform="translate(-0.25 -0.25)" fill="none" stroke="#e50a17" stroke-width="0.5"/>
      <path id="Path_107270" data-name="Path 107270" d="M12.25,348.25v6l6,6h6v-6l-6-6Z" transform="translate(-0.25 -0.25)" fill="none" stroke="#e50a17" stroke-width="0.5"/>
      <path id="Path_107271" data-name="Path 107271" d="M12.25,372.25v6l6,6h6v-6l-6-6Z" transform="translate(-0.25 -0.25)" fill="none" stroke="#e50a17" stroke-width="0.5"/>
      <path id="Path_107272" data-name="Path 107272" d="M24.25,336.25v6l-6,6h-6v-6l6-6Z" transform="translate(-0.25 -0.25)" fill="none" stroke="#e50a17" stroke-width="0.5"/>
      <path id="Path_107273" data-name="Path 107273" d="M24.25,360.25v6l-6,6h-6v-6l6-6Z" transform="translate(-0.25 -0.25)" fill="none" stroke="#e50a17" stroke-width="0.5"/>
      <path id="Path_107274" data-name="Path 107274" d="M12.25,348.25v6l-6,6h-6v-6l6-6Z" transform="translate(-0.25 -0.25)" fill="none" stroke="#e50a17" stroke-width="0.5"/>
      <path id="Path_107275" data-name="Path 107275" d="M12.25,372.25v6l-6,6h-6v-6l6-6Z" transform="translate(-0.25 -0.25)" fill="none" stroke="#e50a17" stroke-width="0.5"/>
    </g>
    <g id="Group_82137" data-name="Group 82137" transform="translate(0 384)">
      <path id="Path_107276" data-name="Path 107276" d="M.25.25v6l6,6h6v-6l-6-6Z" transform="translate(-0.25 -0.25)" fill="none" stroke="#e50a17" stroke-width="0.5"/>
      <path id="Path_107277" data-name="Path 107277" d="M.25,24.25v6l6,6h6v-6l-6-6Z" transform="translate(-0.25 -0.25)" fill="none" stroke="#e50a17" stroke-width="0.5"/>
      <path id="Path_107278" data-name="Path 107278" d="M12.25,12.25v6l6,6h6v-6l-6-6Z" transform="translate(-0.25 -0.25)" fill="none" stroke="#e50a17" stroke-width="0.5"/>
      <path id="Path_107279" data-name="Path 107279" d="M12.25,36.25v6l6,6h6v-6l-6-6Z" transform="translate(-0.25 -0.25)" fill="none" stroke="#e50a17" stroke-width="0.5"/>
      <path id="Path_107280" data-name="Path 107280" d="M24.25.25v6l-6,6h-6v-6l6-6Z" transform="translate(-0.25 -0.25)" fill="none" stroke="#e50a17" stroke-width="0.5"/>
      <path id="Path_107281" data-name="Path 107281" d="M24.25,24.25v6l-6,6h-6v-6l6-6Z" transform="translate(-0.25 -0.25)" fill="none" stroke="#e50a17" stroke-width="0.5"/>
      <path id="Path_107282" data-name="Path 107282" d="M12.25,12.25v6l-6,6h-6v-6l6-6Z" transform="translate(-0.25 -0.25)" fill="none" stroke="#e50a17" stroke-width="0.5"/>
      <path id="Path_107283" data-name="Path 107283" d="M12.25,36.25v6l-6,6h-6v-6l6-6Z" transform="translate(-0.25 -0.25)" fill="none" stroke="#e50a17" stroke-width="0.5"/>
      <path id="Path_107284" data-name="Path 107284" d="M.25,48.25v6l6,6h6v-6l-6-6Z" transform="translate(-0.25 -0.25)" fill="none" stroke="#e50a17" stroke-width="0.5"/>
      <path id="Path_107285" data-name="Path 107285" d="M.25,72.25v6l6,6h6v-6l-6-6Z" transform="translate(-0.25 -0.25)" fill="none" stroke="#e50a17" stroke-width="0.5"/>
      <path id="Path_107286" data-name="Path 107286" d="M12.25,60.25v6l6,6h6v-6l-6-6Z" transform="translate(-0.25 -0.25)" fill="none" stroke="#e50a17" stroke-width="0.5"/>
      <path id="Path_107287" data-name="Path 107287" d="M12.25,84.25v6l6,6h6v-6l-6-6Z" transform="translate(-0.25 -0.25)" fill="none" stroke="#e50a17" stroke-width="0.5"/>
      <path id="Path_107288" data-name="Path 107288" d="M24.25,48.25v6l-6,6h-6v-6l6-6Z" transform="translate(-0.25 -0.25)" fill="none" stroke="#e50a17" stroke-width="0.5"/>
      <path id="Path_107289" data-name="Path 107289" d="M24.25,72.25v6l-6,6h-6v-6l6-6Z" transform="translate(-0.25 -0.25)" fill="none" stroke="#e50a17" stroke-width="0.5"/>
      <path id="Path_107290" data-name="Path 107290" d="M12.25,60.25v6l-6,6h-6v-6l6-6Z" transform="translate(-0.25 -0.25)" fill="none" stroke="#e50a17" stroke-width="0.5"/>
      <path id="Path_107291" data-name="Path 107291" d="M12.25,84.25v6l-6,6h-6v-6l6-6Z" transform="translate(-0.25 -0.25)" fill="none" stroke="#e50a17" stroke-width="0.5"/>
      <path id="Path_107292" data-name="Path 107292" d="M.25,96.25v6l6,6h6v-6l-6-6Z" transform="translate(-0.25 -0.25)" fill="none" stroke="#e50a17" stroke-width="0.5"/>
      <path id="Path_107293" data-name="Path 107293" d="M.25,120.25v6l6,6h6v-6l-6-6Z" transform="translate(-0.25 -0.25)" fill="none" stroke="#e50a17" stroke-width="0.5"/>
      <path id="Path_107294" data-name="Path 107294" d="M.25,120.25v6l6,6h6v-6l-6-6Z" transform="translate(-0.25 287.75)" fill="none" stroke="#e50a17" stroke-width="0.5"/>
      <path id="Path_107295" data-name="Path 107295" d="M12.25,108.25v6l6,6h6v-6l-6-6Z" transform="translate(-0.25 -0.25)" fill="none" stroke="#e50a17" stroke-width="0.5"/>
      <path id="Path_107296" data-name="Path 107296" d="M12.25,132.25v6l6,6h6v-6l-6-6Z" transform="translate(-0.25 -0.25)" fill="none" stroke="#e50a17" stroke-width="0.5"/>
      <path id="Path_107297" data-name="Path 107297" d="M12.25,132.25v6l6,6h6v-6l-6-6Z" transform="translate(-0.25 287.75)" fill="none" stroke="#e50a17" stroke-width="0.5"/>
      <path id="Path_107298" data-name="Path 107298" d="M24.25,96.25v6l-6,6h-6v-6l6-6Z" transform="translate(-0.25 -0.25)" fill="none" stroke="#e50a17" stroke-width="0.5"/>
      <path id="Path_107299" data-name="Path 107299" d="M24.25,120.25v6l-6,6h-6v-6l6-6Z" transform="translate(-0.25 -0.25)" fill="none" stroke="#e50a17" stroke-width="0.5"/>
      <path id="Path_107300" data-name="Path 107300" d="M24.25,120.25v6l-6,6h-6v-6l6-6Z" transform="translate(-0.25 287.75)" fill="none" stroke="#e50a17" stroke-width="0.5"/>
      <path id="Path_107301" data-name="Path 107301" d="M12.25,108.25v6l-6,6h-6v-6l6-6Z" transform="translate(-0.25 -0.25)" fill="none" stroke="#e50a17" stroke-width="0.5"/>
      <path id="Path_107302" data-name="Path 107302" d="M12.25,132.25v6l-6,6h-6v-6l6-6Z" transform="translate(-0.25 -0.25)" fill="none" stroke="#e50a17" stroke-width="0.5"/>
      <path id="Path_107303" data-name="Path 107303" d="M12.25,132.25v6l-6,6h-6v-6l6-6Z" transform="translate(-0.25 287.75)" fill="none" stroke="#e50a17" stroke-width="0.5"/>
      <path id="Path_107304" data-name="Path 107304" d="M.25,144.25v6l6,6h6v-6l-6-6Z" transform="translate(-0.25 -0.25)" fill="none" stroke="#e50a17" stroke-width="0.5"/>
      <path id="Path_107305" data-name="Path 107305" d="M.25,144.25v6l6,6h6v-6l-6-6Z" transform="translate(-0.25 287.75)" fill="none" stroke="#e50a17" stroke-width="0.5"/>
      <path id="Path_107306" data-name="Path 107306" d="M.25,168.25v6l6,6h6v-6l-6-6Z" transform="translate(-0.25 -0.25)" fill="none" stroke="#e50a17" stroke-width="0.5"/>
      <path id="Path_107307" data-name="Path 107307" d="M.25,168.25v6l6,6h6v-6l-6-6Z" transform="translate(-0.25 287.75)" fill="none" stroke="#e50a17" stroke-width="0.5"/>
      <path id="Path_107308" data-name="Path 107308" d="M12.25,156.25v6l6,6h6v-6l-6-6Z" transform="translate(-0.25 -0.25)" fill="none" stroke="#e50a17" stroke-width="0.5"/>
      <path id="Path_107309" data-name="Path 107309" d="M12.25,156.25v6l6,6h6v-6l-6-6Z" transform="translate(-0.25 287.75)" fill="none" stroke="#e50a17" stroke-width="0.5"/>
      <path id="Path_107310" data-name="Path 107310" d="M12.25,180.25v6l6,6h6v-6l-6-6Z" transform="translate(-0.25 -0.25)" fill="none" stroke="#e50a17" stroke-width="0.5"/>
      <path id="Path_107311" data-name="Path 107311" d="M12.25,180.25v6l6,6h6v-6l-6-6Z" transform="translate(-0.25 287.75)" fill="none" stroke="#e50a17" stroke-width="0.5"/>
      <path id="Path_107312" data-name="Path 107312" d="M24.25,144.25v6l-6,6h-6v-6l6-6Z" transform="translate(-0.25 -0.25)" fill="none" stroke="#e50a17" stroke-width="0.5"/>
      <path id="Path_107313" data-name="Path 107313" d="M24.25,144.25v6l-6,6h-6v-6l6-6Z" transform="translate(-0.25 287.75)" fill="none" stroke="#e50a17" stroke-width="0.5"/>
      <path id="Path_107314" data-name="Path 107314" d="M24.25,168.25v6l-6,6h-6v-6l6-6Z" transform="translate(-0.25 -0.25)" fill="none" stroke="#e50a17" stroke-width="0.5"/>
      <path id="Path_107315" data-name="Path 107315" d="M24.25,168.25v6l-6,6h-6v-6l6-6Z" transform="translate(-0.25 287.75)" fill="none" stroke="#e50a17" stroke-width="0.5"/>
      <path id="Path_107316" data-name="Path 107316" d="M12.25,156.25v6l-6,6h-6v-6l6-6Z" transform="translate(-0.25 -0.25)" fill="none" stroke="#e50a17" stroke-width="0.5"/>
      <path id="Path_107317" data-name="Path 107317" d="M12.25,156.25v6l-6,6h-6v-6l6-6Z" transform="translate(-0.25 287.75)" fill="none" stroke="#e50a17" stroke-width="0.5"/>
      <path id="Path_107318" data-name="Path 107318" d="M12.25,180.25v6l-6,6h-6v-6l6-6Z" transform="translate(-0.25 -0.25)" fill="none" stroke="#e50a17" stroke-width="0.5"/>
      <path id="Path_107319" data-name="Path 107319" d="M12.25,180.25v6l-6,6h-6v-6l6-6Z" transform="translate(-0.25 287.75)" fill="none" stroke="#e50a17" stroke-width="0.5"/>
      <path id="Path_107320" data-name="Path 107320" d="M.25,192.25v6l6,6h6v-6l-6-6Z" transform="translate(-0.25 -0.25)" fill="none" stroke="#e50a17" stroke-width="0.5"/>
      <path id="Path_107321" data-name="Path 107321" d="M.25,192.25v6l6,6h6v-6l-6-6Z" transform="translate(-0.25 287.75)" fill="none" stroke="#e50a17" stroke-width="0.5"/>
      <path id="Path_107322" data-name="Path 107322" d="M.25,216.25v6l6,6h6v-6l-6-6Z" transform="translate(-0.25 -0.25)" fill="none" stroke="#e50a17" stroke-width="0.5"/>
      <path id="Path_107323" data-name="Path 107323" d="M.25,216.25v6l6,6h6v-6l-6-6Z" transform="translate(-0.25 287.75)" fill="none" stroke="#e50a17" stroke-width="0.5"/>
      <path id="Path_107324" data-name="Path 107324" d="M12.25,204.25v6l6,6h6v-6l-6-6Z" transform="translate(-0.25 -0.25)" fill="none" stroke="#e50a17" stroke-width="0.5"/>
      <path id="Path_107325" data-name="Path 107325" d="M12.25,204.25v6l6,6h6v-6l-6-6Z" transform="translate(-0.25 287.75)" fill="none" stroke="#e50a17" stroke-width="0.5"/>
      <path id="Path_107326" data-name="Path 107326" d="M12.25,228.25v6l6,6h6v-6l-6-6Z" transform="translate(-0.25 -0.25)" fill="none" stroke="#e50a17" stroke-width="0.5"/>
      <path id="Path_107327" data-name="Path 107327" d="M12.25,228.25v6l6,6h6v-6l-6-6Z" transform="translate(-0.25 287.75)" fill="none" stroke="#e50a17" stroke-width="0.5"/>
      <path id="Path_107328" data-name="Path 107328" d="M24.25,192.25v6l-6,6h-6v-6l6-6Z" transform="translate(-0.25 -0.25)" fill="none" stroke="#e50a17" stroke-width="0.5"/>
      <path id="Path_107329" data-name="Path 107329" d="M24.25,192.25v6l-6,6h-6v-6l6-6Z" transform="translate(-0.25 287.75)" fill="none" stroke="#e50a17" stroke-width="0.5"/>
      <path id="Path_107330" data-name="Path 107330" d="M24.25,216.25v6l-6,6h-6v-6l6-6Z" transform="translate(-0.25 -0.25)" fill="none" stroke="#e50a17" stroke-width="0.5"/>
      <path id="Path_107331" data-name="Path 107331" d="M24.25,216.25v6l-6,6h-6v-6l6-6Z" transform="translate(-0.25 287.75)" fill="none" stroke="#e50a17" stroke-width="0.5"/>
      <path id="Path_107332" data-name="Path 107332" d="M12.25,204.25v6l-6,6h-6v-6l6-6Z" transform="translate(-0.25 -0.25)" fill="none" stroke="#e50a17" stroke-width="0.5"/>
      <path id="Path_107333" data-name="Path 107333" d="M12.25,204.25v6l-6,6h-6v-6l6-6Z" transform="translate(-0.25 287.75)" fill="none" stroke="#e50a17" stroke-width="0.5"/>
      <path id="Path_107334" data-name="Path 107334" d="M12.25,228.25v6l-6,6h-6v-6l6-6Z" transform="translate(-0.25 -0.25)" fill="none" stroke="#e50a17" stroke-width="0.5"/>
      <path id="Path_107335" data-name="Path 107335" d="M12.25,228.25v6l-6,6h-6v-6l6-6Z" transform="translate(-0.25 287.75)" fill="none" stroke="#e50a17" stroke-width="0.5"/>
      <path id="Path_107336" data-name="Path 107336" d="M.25,240.25v6l6,6h6v-6l-6-6Z" transform="translate(-0.25 -0.25)" fill="none" stroke="#e50a17" stroke-width="0.5"/>
      <path id="Path_107337" data-name="Path 107337" d="M.25,240.25v6l6,6h6v-6l-6-6Z" transform="translate(-0.25 287.75)" fill="none" stroke="#e50a17" stroke-width="0.5"/>
      <path id="Path_107338" data-name="Path 107338" d="M.25,264.25v6l6,6h6v-6l-6-6Z" transform="translate(-0.25 -0.25)" fill="none" stroke="#e50a17" stroke-width="0.5"/>
      <path id="Path_107339" data-name="Path 107339" d="M.25,264.25v6l6,6h6v-6l-6-6Z" transform="translate(-0.25 287.75)" fill="none" stroke="#e50a17" stroke-width="0.5"/>
      <path id="Path_107340" data-name="Path 107340" d="M12.25,252.25v6l6,6h6v-6l-6-6Z" transform="translate(-0.25 -0.25)" fill="none" stroke="#e50a17" stroke-width="0.5"/>
      <path id="Path_107341" data-name="Path 107341" d="M12.25,252.25v6l6,6h6v-6l-6-6Z" transform="translate(-0.25 287.75)" fill="none" stroke="#e50a17" stroke-width="0.5"/>
      <path id="Path_107342" data-name="Path 107342" d="M12.25,276.25v6l6,6h6v-6l-6-6Z" transform="translate(-0.25 -0.25)" fill="none" stroke="#e50a17" stroke-width="0.5"/>
      <path id="Path_107343" data-name="Path 107343" d="M12.25,276.25v6l6,6h6v-6l-6-6Z" transform="translate(-0.25 287.75)" fill="none" stroke="#e50a17" stroke-width="0.5"/>
      <path id="Path_107344" data-name="Path 107344" d="M24.25,240.25v6l-6,6h-6v-6l6-6Z" transform="translate(-0.25 -0.25)" fill="none" stroke="#e50a17" stroke-width="0.5"/>
      <path id="Path_107345" data-name="Path 107345" d="M24.25,240.25v6l-6,6h-6v-6l6-6Z" transform="translate(-0.25 287.75)" fill="none" stroke="#e50a17" stroke-width="0.5"/>
      <path id="Path_107346" data-name="Path 107346" d="M24.25,264.25v6l-6,6h-6v-6l6-6Z" transform="translate(-0.25 -0.25)" fill="none" stroke="#e50a17" stroke-width="0.5"/>
      <path id="Path_107347" data-name="Path 107347" d="M24.25,264.25v6l-6,6h-6v-6l6-6Z" transform="translate(-0.25 287.75)" fill="none" stroke="#e50a17" stroke-width="0.5"/>
      <path id="Path_107348" data-name="Path 107348" d="M12.25,252.25v6l-6,6h-6v-6l6-6Z" transform="translate(-0.25 -0.25)" fill="none" stroke="#e50a17" stroke-width="0.5"/>
      <path id="Path_107349" data-name="Path 107349" d="M12.25,252.25v6l-6,6h-6v-6l6-6Z" transform="translate(-0.25 287.75)" fill="none" stroke="#e50a17" stroke-width="0.5"/>
      <path id="Path_107350" data-name="Path 107350" d="M12.25,276.25v6l-6,6h-6v-6l6-6Z" transform="translate(-0.25 -0.25)" fill="none" stroke="#e50a17" stroke-width="0.5"/>
      <path id="Path_107351" data-name="Path 107351" d="M12.25,276.25v6l-6,6h-6v-6l6-6Z" transform="translate(-0.25 287.75)" fill="none" stroke="#e50a17" stroke-width="0.5"/>
      <path id="Path_107352" data-name="Path 107352" d="M.25,288.25v6l6,6h6v-6l-6-6Z" transform="translate(-0.25 -0.25)" fill="none" stroke="#e50a17" stroke-width="0.5"/>
      <path id="Path_107353" data-name="Path 107353" d="M.25,288.25v6l6,6h6v-6l-6-6Z" transform="translate(-0.25 287.75)" fill="none" stroke="#e50a17" stroke-width="0.5"/>
      <path id="Path_107354" data-name="Path 107354" d="M.25,312.25v6l6,6h6v-6l-6-6Z" transform="translate(-0.25 -0.25)" fill="none" stroke="#e50a17" stroke-width="0.5"/>
      <path id="Path_107355" data-name="Path 107355" d="M12.25,300.25v6l6,6h6v-6l-6-6Z" transform="translate(-0.25 -0.25)" fill="none" stroke="#e50a17" stroke-width="0.5"/>
      <path id="Path_107356" data-name="Path 107356" d="M12.25,300.25v6l6,6h6v-6l-6-6Z" transform="translate(-0.25 287.75)" fill="none" stroke="#e50a17" stroke-width="0.5"/>
      <path id="Path_107357" data-name="Path 107357" d="M12.25,324.25v6l6,6h6v-6l-6-6Z" transform="translate(-0.25 -0.25)" fill="none" stroke="#e50a17" stroke-width="0.5"/>
      <path id="Path_107358" data-name="Path 107358" d="M24.25,288.25v6l-6,6h-6v-6l6-6Z" transform="translate(-0.25 -0.25)" fill="none" stroke="#e50a17" stroke-width="0.5"/>
      <path id="Path_107359" data-name="Path 107359" d="M24.25,288.25v6l-6,6h-6v-6l6-6Z" transform="translate(-0.25 287.75)" fill="none" stroke="#e50a17" stroke-width="0.5"/>
      <path id="Path_107360" data-name="Path 107360" d="M24.25,312.25v6l-6,6h-6v-6l6-6Z" transform="translate(-0.25 -0.25)" fill="none" stroke="#e50a17" stroke-width="0.5"/>
      <path id="Path_107361" data-name="Path 107361" d="M12.25,300.25v6l-6,6h-6v-6l6-6Z" transform="translate(-0.25 -0.25)" fill="none" stroke="#e50a17" stroke-width="0.5"/>
      <path id="Path_107362" data-name="Path 107362" d="M12.25,300.25v6l-6,6h-6v-6l6-6Z" transform="translate(-0.25 287.75)" fill="none" stroke="#e50a17" stroke-width="0.5"/>
      <path id="Path_107363" data-name="Path 107363" d="M12.25,324.25v6l-6,6h-6v-6l6-6Z" transform="translate(-0.25 -0.25)" fill="none" stroke="#e50a17" stroke-width="0.5"/>
      <path id="Path_107364" data-name="Path 107364" d="M.25,336.25v6l6,6h6v-6l-6-6Z" transform="translate(-0.25 -0.25)" fill="none" stroke="#e50a17" stroke-width="0.5"/>
      <path id="Path_107365" data-name="Path 107365" d="M.25,360.25v6l6,6h6v-6l-6-6Z" transform="translate(-0.25 -0.25)" fill="none" stroke="#e50a17" stroke-width="0.5"/>
      <path id="Path_107366" data-name="Path 107366" d="M.25,360.25v6l6,6h6v-6l-6-6Z" transform="translate(-0.25 23.75)" fill="none" stroke="#e50a17" stroke-width="0.5"/>
      <path id="Path_107367" data-name="Path 107367" d="M12.25,348.25v6l6,6h6v-6l-6-6Z" transform="translate(-0.25 -0.25)" fill="none" stroke="#e50a17" stroke-width="0.5"/>
      <path id="Path_107368" data-name="Path 107368" d="M12.25,372.25v6l6,6h6v-6l-6-6Z" transform="translate(-0.25 -0.25)" fill="none" stroke="#e50a17" stroke-width="0.5"/>
      <path id="Path_107369" data-name="Path 107369" d="M12.25,372.25v6l6,6h6v-6l-6-6Z" transform="translate(-0.25 23.75)" fill="none" stroke="#e50a17" stroke-width="0.5"/>
      <path id="Path_107370" data-name="Path 107370" d="M24.25,336.25v6l-6,6h-6v-6l6-6Z" transform="translate(-0.25 -0.25)" fill="none" stroke="#e50a17" stroke-width="0.5"/>
      <path id="Path_107371" data-name="Path 107371" d="M24.25,360.25v6l-6,6h-6v-6l6-6Z" transform="translate(-0.25 -0.25)" fill="none" stroke="#e50a17" stroke-width="0.5"/>
      <path id="Path_107372" data-name="Path 107372" d="M24.25,360.25v6l-6,6h-6v-6l6-6Z" transform="translate(-0.25 23.75)" fill="none" stroke="#e50a17" stroke-width="0.5"/>
      <path id="Path_107373" data-name="Path 107373" d="M12.25,348.25v6l-6,6h-6v-6l6-6Z" transform="translate(-0.25 -0.25)" fill="none" stroke="#e50a17" stroke-width="0.5"/>
      <path id="Path_107374" data-name="Path 107374" d="M12.25,372.25v6l-6,6h-6v-6l6-6Z" transform="translate(-0.25 -0.25)" fill="none" stroke="#e50a17" stroke-width="0.5"/>
      <path id="Path_107375" data-name="Path 107375" d="M12.25,372.25v6l-6,6h-6v-6l6-6Z" transform="translate(-0.25 23.75)" fill="none" stroke="#e50a17" stroke-width="0.5"/>
    </g>
  </g>
</svg>
